<svg xmlns="http://www.w3.org/2000/svg" viewBox="0 0 1600 800" width="1600" height="800" role="img" aria-label="가상 건물 전경 일러스트">
<!-- 가상의 건물 일러스트. scripts/generate_building_images.py 로 생성 -->
<defs><linearGradient id="sky" x1="0" y1="0" x2="0" y2="1"><stop offset="0" stop-color="#5fa8ef"/><stop offset="0.8" stop-color="#dff0ff"/></linearGradient><linearGradient id="glass" x1="0" y1="0" x2="0" y2="1"><stop offset="0" stop-color="#b9dcf6"/><stop offset="1" stop-color="#5f9bd1"/></linearGradient><linearGradient id="lawn" x1="0" y1="0" x2="0" y2="1"><stop offset="0" stop-color="#86c474"/><stop offset="1" stop-color="#5fa055"/></linearGradient></defs>
<rect x="0.0" y="0.0" width="1600.0" height="800.0" fill="url(#sky)" />
<circle cx="1330" cy="130" r="115" fill="#fff6c9" opacity="0.28"/>
<circle cx="1330" cy="130" r="52" fill="#fff6c9"/>
<ellipse cx="513" cy="216" rx="90" ry="28" fill="#ffffff" opacity="0.85"/><ellipse cx="451" cy="226" rx="64" ry="21" fill="#ffffff" opacity="0.85"/><ellipse cx="577" cy="229" rx="72" ry="22" fill="#ffffff" opacity="0.85"/><ellipse cx="523" cy="201" rx="51" ry="23" fill="#ffffff" opacity="0.85"/>
<ellipse cx="1437" cy="163" rx="61" ry="19" fill="#ffffff" opacity="0.85"/><ellipse cx="1395" cy="170" rx="44" ry="14" fill="#ffffff" opacity="0.85"/><ellipse cx="1481" cy="172" rx="49" ry="15" fill="#ffffff" opacity="0.85"/><ellipse cx="1444" cy="153" rx="35" ry="16" fill="#ffffff" opacity="0.85"/>
<ellipse cx="1363" cy="84" rx="59" ry="19" fill="#ffffff" opacity="0.85"/><ellipse cx="1323" cy="91" rx="42" ry="13" fill="#ffffff" opacity="0.85"/><ellipse cx="1405" cy="92" rx="47" ry="14" fill="#ffffff" opacity="0.85"/><ellipse cx="1370" cy="74" rx="34" ry="15" fill="#ffffff" opacity="0.85"/>
<ellipse cx="1286" cy="79" rx="80" ry="25" fill="#ffffff" opacity="0.85"/><ellipse cx="1231" cy="88" rx="57" ry="18" fill="#ffffff" opacity="0.85"/><ellipse cx="1343" cy="90" rx="64" ry="20" fill="#ffffff" opacity="0.85"/><ellipse cx="1295" cy="65" rx="46" ry="21" fill="#ffffff" opacity="0.85"/>
<ellipse cx="329" cy="207" rx="90" ry="28" fill="#ffffff" opacity="0.85"/><ellipse cx="268" cy="217" rx="64" ry="20" fill="#ffffff" opacity="0.85"/><ellipse cx="393" cy="220" rx="72" ry="22" fill="#ffffff" opacity="0.85"/><ellipse cx="339" cy="192" rx="51" ry="23" fill="#ffffff" opacity="0.85"/>
<path d="M0 520 C220 440 420 500 640 470 S1060 430 1300 480 S1520 470 1600 490 V650 H0Z" fill="#a9c4b0"/>
<path d="M0 575 C260 525 520 585 780 550 S1250 525 1600 570 V650 H0Z" fill="#8fb09a"/>
<circle cx="-20" cy="638" r="33" fill="#5fae55" opacity="0.9"/>
<circle cx="18" cy="633" r="34" fill="#5fae55" opacity="0.9"/>
<circle cx="56" cy="629" r="32" fill="#6bb85c" opacity="0.9"/>
<circle cx="94" cy="638" r="33" fill="#6bb85c" opacity="0.9"/>
<circle cx="132" cy="638" r="31" fill="#5fae55" opacity="0.9"/>
<circle cx="170" cy="620" r="28" fill="#6bb85c" opacity="0.9"/>
<circle cx="208" cy="622" r="30" fill="#5fae55" opacity="0.9"/>
<circle cx="246" cy="626" r="35" fill="#4e9a4a" opacity="0.9"/>
<circle cx="284" cy="638" r="33" fill="#5fae55" opacity="0.9"/>
<circle cx="322" cy="631" r="29" fill="#437f3f" opacity="0.9"/>
<circle cx="360" cy="635" r="34" fill="#5fae55" opacity="0.9"/>
<circle cx="398" cy="624" r="37" fill="#4e9a4a" opacity="0.9"/>
<circle cx="436" cy="629" r="38" fill="#6bb85c" opacity="0.9"/>
<circle cx="474" cy="624" r="26" fill="#437f3f" opacity="0.9"/>
<circle cx="512" cy="630" r="39" fill="#5fae55" opacity="0.9"/>
<circle cx="550" cy="632" r="36" fill="#4e9a4a" opacity="0.9"/>
<circle cx="588" cy="638" r="27" fill="#6bb85c" opacity="0.9"/>
<circle cx="626" cy="625" r="28" fill="#4e9a4a" opacity="0.9"/>
<circle cx="664" cy="627" r="37" fill="#437f3f" opacity="0.9"/>
<circle cx="702" cy="626" r="29" fill="#5fae55" opacity="0.9"/>
<circle cx="740" cy="630" r="36" fill="#4e9a4a" opacity="0.9"/>
<circle cx="778" cy="636" r="31" fill="#6bb85c" opacity="0.9"/>
<circle cx="816" cy="620" r="39" fill="#437f3f" opacity="0.9"/>
<circle cx="854" cy="628" r="29" fill="#437f3f" opacity="0.9"/>
<circle cx="892" cy="638" r="30" fill="#6bb85c" opacity="0.9"/>
<circle cx="930" cy="632" r="39" fill="#5fae55" opacity="0.9"/>
<circle cx="968" cy="628" r="32" fill="#437f3f" opacity="0.9"/>
<circle cx="1006" cy="622" r="31" fill="#4e9a4a" opacity="0.9"/>
<circle cx="1044" cy="636" r="30" fill="#4e9a4a" opacity="0.9"/>
<circle cx="1082" cy="630" r="34" fill="#437f3f" opacity="0.9"/>
<circle cx="1120" cy="620" r="30" fill="#5fae55" opacity="0.9"/>
<circle cx="1158" cy="633" r="29" fill="#437f3f" opacity="0.9"/>
<circle cx="1196" cy="633" r="38" fill="#4e9a4a" opacity="0.9"/>
<circle cx="1234" cy="630" r="26" fill="#6bb85c" opacity="0.9"/>
<circle cx="1272" cy="632" r="30" fill="#6bb85c" opacity="0.9"/>
<circle cx="1310" cy="623" r="33" fill="#4e9a4a" opacity="0.9"/>
<circle cx="1348" cy="623" r="38" fill="#6bb85c" opacity="0.9"/>
<circle cx="1386" cy="620" r="34" fill="#6bb85c" opacity="0.9"/>
<circle cx="1424" cy="632" r="33" fill="#4e9a4a" opacity="0.9"/>
<circle cx="1462" cy="632" r="38" fill="#4e9a4a" opacity="0.9"/>
<circle cx="1500" cy="623" r="27" fill="#6bb85c" opacity="0.9"/>
<circle cx="1538" cy="636" r="40" fill="#5fae55" opacity="0.9"/>
<circle cx="1576" cy="625" r="31" fill="#5fae55" opacity="0.9"/>
<circle cx="1614" cy="630" r="39" fill="#6bb85c" opacity="0.9"/>
<rect x="0.0" y="650.0" width="1600.0" height="150.0" fill="url(#lawn)" />
<rect x="0.0" y="650.0" width="1600.0" height="26.0" fill="#cfd3d6" />
<rect x="0.0" y="676.0" width="1600.0" height="4.0" fill="#b4babe" />
<polygon points="740.0,680 860.0,680 990.0,800 610.0,800" fill="#d9dcdd"/>
<rect x="388.0" y="650.0" width="320.0" height="12.0" fill="#000000" opacity="0.12"/>
<rect x="380.0" y="442.0" width="320.0" height="208.0" fill="#e6e2da" />
<rect x="661.6" y="442.0" width="38.4" height="208.0" fill="#000000" opacity="0.08"/>
<rect x="380.0" y="492.5" width="320.0" height="3.0" fill="#9a948a" opacity="0.5"/>
<rect x="380.0" y="544.5" width="320.0" height="3.0" fill="#9a948a" opacity="0.5"/>
<rect x="380.0" y="596.5" width="320.0" height="3.0" fill="#9a948a" opacity="0.5"/>
<rect x="390.0" y="450.3" width="300.0" height="32.2" fill="url(#glass)" />
<path d="M432.9 450.3v32.2M475.7 450.3v32.2M518.6 450.3v32.2M561.4 450.3v32.2M604.3 450.3v32.2M647.1 450.3v32.2" stroke="#9a948a" stroke-width="1.5" opacity="0.6"/>
<rect x="390.0" y="502.3" width="300.0" height="32.2" fill="url(#glass)" />
<path d="M432.9 502.3v32.2M475.7 502.3v32.2M518.6 502.3v32.2M561.4 502.3v32.2M604.3 502.3v32.2M647.1 502.3v32.2" stroke="#9a948a" stroke-width="1.5" opacity="0.6"/>
<rect x="390.0" y="554.3" width="300.0" height="32.2" fill="url(#glass)" />
<path d="M432.9 554.3v32.2M475.7 554.3v32.2M518.6 554.3v32.2M561.4 554.3v32.2M604.3 554.3v32.2M647.1 554.3v32.2" stroke="#9a948a" stroke-width="1.5" opacity="0.6"/>
<rect x="390.0" y="606.3" width="300.0" height="32.2" fill="url(#glass)" />
<path d="M432.9 606.3v32.2M475.7 606.3v32.2M518.6 606.3v32.2M561.4 606.3v32.2M604.3 606.3v32.2M647.1 606.3v32.2" stroke="#9a948a" stroke-width="1.5" opacity="0.6"/>
<rect x="410.0" y="412.0" width="78.0" height="26.0" fill="#9aa6b2" stroke="#6f7b87" stroke-width="2"/>
<path d="M418.0 416v18M430.0 416v18M442.0 416v18M454.0 416v18M466.0 416v18M478.0 416v18" stroke="#6f7b87" stroke-width="2"/>
<rect x="433.4" y="404.0" width="31.2" height="8.0" fill="#7d8791" />
<rect x="376.0" y="432.0" width="328.0" height="10.0" fill="#9a948a" />
<rect x="708.0" y="650.0" width="200.0" height="12.0" fill="#000000" opacity="0.12"/>
<rect x="700.0" y="390.0" width="200.0" height="260.0" fill="#efebe3" />
<rect x="876.0" y="390.0" width="24.0" height="260.0" fill="#000000" opacity="0.08"/>
<rect x="700.0" y="440.5" width="200.0" height="3.0" fill="#9a948a" opacity="0.5"/>
<rect x="700.0" y="492.5" width="200.0" height="3.0" fill="#9a948a" opacity="0.5"/>
<rect x="700.0" y="544.5" width="200.0" height="3.0" fill="#9a948a" opacity="0.5"/>
<rect x="700.0" y="596.5" width="200.0" height="3.0" fill="#9a948a" opacity="0.5"/>
<rect x="735.5" y="400.4" width="29.0" height="26.0" fill="#a3c9e6" stroke="#9a948a" stroke-width="2"/>
<rect x="785.5" y="400.4" width="29.0" height="26.0" fill="#a3c9e6" stroke="#9a948a" stroke-width="2"/>
<rect x="835.5" y="400.4" width="29.0" height="26.0" fill="#7fb0d6" stroke="#9a948a" stroke-width="2"/>
<rect x="735.5" y="452.4" width="29.0" height="26.0" fill="#a3c9e6" stroke="#9a948a" stroke-width="2"/>
<rect x="785.5" y="452.4" width="29.0" height="26.0" fill="#8db9dc" stroke="#9a948a" stroke-width="2"/>
<rect x="835.5" y="452.4" width="29.0" height="26.0" fill="#a3c9e6" stroke="#9a948a" stroke-width="2"/>
<rect x="735.5" y="504.4" width="29.0" height="26.0" fill="#7fb0d6" stroke="#9a948a" stroke-width="2"/>
<rect x="785.5" y="504.4" width="29.0" height="26.0" fill="#7fb0d6" stroke="#9a948a" stroke-width="2"/>
<rect x="835.5" y="504.4" width="29.0" height="26.0" fill="#7fb0d6" stroke="#9a948a" stroke-width="2"/>
<rect x="735.5" y="556.4" width="29.0" height="26.0" fill="#8db9dc" stroke="#9a948a" stroke-width="2"/>
<rect x="785.5" y="556.4" width="29.0" height="26.0" fill="#a3c9e6" stroke="#9a948a" stroke-width="2"/>
<rect x="835.5" y="556.4" width="29.0" height="26.0" fill="#8db9dc" stroke="#9a948a" stroke-width="2"/>
<path d="M716.0 390 A84.0 84.0 0 0 1 884.0 390 Z" fill="#b9c7d3"/>
<path d="M762.2 386 Q758.0 322.8 791.6 308.52" stroke="#ffffff" stroke-width="5" fill="none" opacity="0.35"/>
<rect x="793.0" y="290.0" width="14.0" height="16.0" fill="#9a948a" />
<rect x="710.0" y="382.0" width="180.0" height="8.0" fill="#9a948a" />
<rect x="738.0" y="598.6" width="124.0" height="8.0" fill="#9a948a" />
<rect x="766.0" y="612.6" width="68.0" height="37.4" fill="#27384a" />
<rect x="799.0" y="612.6" width="2.0" height="37.4" fill="#8795a3" />
<rect x="754.0" y="644.0" width="92.0" height="6.0" fill="#c3c8cc" />
<rect x="908.0" y="650.0" width="320.0" height="12.0" fill="#000000" opacity="0.12"/>
<rect x="900.0" y="442.0" width="320.0" height="208.0" fill="#e6e2da" />
<rect x="1181.6" y="442.0" width="38.4" height="208.0" fill="#000000" opacity="0.08"/>
<rect x="900.0" y="492.5" width="320.0" height="3.0" fill="#9a948a" opacity="0.5"/>
<rect x="900.0" y="544.5" width="320.0" height="3.0" fill="#9a948a" opacity="0.5"/>
<rect x="900.0" y="596.5" width="320.0" height="3.0" fill="#9a948a" opacity="0.5"/>
<rect x="910.0" y="450.3" width="300.0" height="32.2" fill="url(#glass)" />
<path d="M952.9 450.3v32.2M995.7 450.3v32.2M1038.6 450.3v32.2M1081.4 450.3v32.2M1124.3 450.3v32.2M1167.1 450.3v32.2" stroke="#9a948a" stroke-width="1.5" opacity="0.6"/>
<rect x="910.0" y="502.3" width="300.0" height="32.2" fill="url(#glass)" />
<path d="M952.9 502.3v32.2M995.7 502.3v32.2M1038.6 502.3v32.2M1081.4 502.3v32.2M1124.3 502.3v32.2M1167.1 502.3v32.2" stroke="#9a948a" stroke-width="1.5" opacity="0.6"/>
<rect x="910.0" y="554.3" width="300.0" height="32.2" fill="url(#glass)" />
<path d="M952.9 554.3v32.2M995.7 554.3v32.2M1038.6 554.3v32.2M1081.4 554.3v32.2M1124.3 554.3v32.2M1167.1 554.3v32.2" stroke="#9a948a" stroke-width="1.5" opacity="0.6"/>
<rect x="910.0" y="606.3" width="300.0" height="32.2" fill="url(#glass)" />
<path d="M952.9 606.3v32.2M995.7 606.3v32.2M1038.6 606.3v32.2M1081.4 606.3v32.2M1124.3 606.3v32.2M1167.1 606.3v32.2" stroke="#9a948a" stroke-width="1.5" opacity="0.6"/>
<rect x="927.0" y="410.0" width="57.0" height="28.0" fill="#9aa6b2" stroke="#6f7b87" stroke-width="2"/>
<path d="M935.0 414v20M947.0 414v20M959.0 414v20M971.0 414v20" stroke="#6f7b87" stroke-width="2"/>
<rect x="944.1" y="402.0" width="22.8" height="8.0" fill="#7d8791" />
<rect x="896.0" y="432.0" width="328.0" height="10.0" fill="#9a948a" />
<rect x="285.2" y="641.1" width="9.7" height="57.9" fill="#6b4a2f" />
<circle cx="290" cy="600" r="46" fill="#5fae55"/>
<circle cx="259" cy="629" r="36" fill="#5fae55"/>
<circle cx="321" cy="629" r="36" fill="#437f3f"/>
<circle cx="290" cy="639" r="41" fill="#4e9a4a"/>
<rect x="173.7" y="681.7" width="12.6" height="75.3" fill="#6b4a2f" />
<circle cx="180" cy="628" r="60" fill="#5fae55"/>
<circle cx="139" cy="666" r="47" fill="#5fae55"/>
<circle cx="221" cy="666" r="47" fill="#4e9a4a"/>
<circle cx="180" cy="679" r="53" fill="#6bb85c"/>
<rect x="1304.7" y="654.4" width="10.6" height="63.6" fill="#6b4a2f" />
<circle cx="1310" cy="609" r="50" fill="#6bb85c"/>
<circle cx="1276" cy="641" r="40" fill="#6bb85c"/>
<circle cx="1344" cy="641" r="40" fill="#5fae55"/>
<circle cx="1310" cy="652" r="45" fill="#437f3f"/>
<rect x="1414.2" y="667.0" width="11.5" height="69.0" fill="#6b4a2f" />
<circle cx="1420" cy="618" r="55" fill="#6bb85c"/>
<circle cx="1383" cy="653" r="43" fill="#437f3f"/>
<circle cx="1457" cy="653" r="43" fill="#5fae55"/>
<circle cx="1420" cy="664" r="49" fill="#6bb85c"/>
<ellipse cx="46" cy="702" rx="39" ry="15" fill="#6bb85c"/>
<ellipse cx="146" cy="702" rx="28" ry="15" fill="#437f3f"/>
<ellipse cx="235" cy="702" rx="32" ry="14" fill="#5fae55"/>
<ellipse cx="329" cy="702" rx="40" ry="13" fill="#5fae55"/>
<ellipse cx="436" cy="702" rx="39" ry="17" fill="#6bb85c"/>
<ellipse cx="525" cy="702" rx="39" ry="18" fill="#4e9a4a"/>
<ellipse cx="1088" cy="702" rx="31" ry="15" fill="#4e9a4a"/>
<ellipse cx="1199" cy="702" rx="35" ry="15" fill="#437f3f"/>
<ellipse cx="1280" cy="702" rx="29" ry="13" fill="#4e9a4a"/>
<ellipse cx="1390" cy="702" rx="35" ry="16" fill="#5fae55"/>
<ellipse cx="1474" cy="702" rx="36" ry="15" fill="#6bb85c"/>
<ellipse cx="1576" cy="702" rx="31" ry="15" fill="#6bb85c"/>
</svg>
