<svg xmlns="http://www.w3.org/2000/svg" viewBox="0 0 1600 800" width="1600" height="800" role="img" aria-label="가상 건물 전경 일러스트">
<!-- 가상의 건물 일러스트. scripts/generate_building_images.py 로 생성 -->
<defs><linearGradient id="sky" x1="0" y1="0" x2="0" y2="1"><stop offset="0" stop-color="#8fb8e8"/><stop offset="0.8" stop-color="#fde7cf"/></linearGradient><linearGradient id="glass" x1="0" y1="0" x2="0" y2="1"><stop offset="0" stop-color="#d6e6f2"/><stop offset="1" stop-color="#7da4c8"/></linearGradient><linearGradient id="lawn" x1="0" y1="0" x2="0" y2="1"><stop offset="0" stop-color="#8ec47a"/><stop offset="1" stop-color="#689f5a"/></linearGradient></defs>
<rect x="0.0" y="0.0" width="1600.0" height="800.0" fill="url(#sky)" />
<circle cx="260" cy="470" r="115" fill="#ffd9a0" opacity="0.28"/>
<circle cx="260" cy="470" r="52" fill="#ffd9a0"/>
<ellipse cx="214" cy="170" rx="63" ry="20" fill="#fff4ea" opacity="0.85"/><ellipse cx="171" cy="177" rx="45" ry="14" fill="#fff4ea" opacity="0.85"/><ellipse cx="259" cy="179" rx="51" ry="15" fill="#fff4ea" opacity="0.85"/><ellipse cx="221" cy="159" rx="36" ry="16" fill="#fff4ea" opacity="0.85"/>
<ellipse cx="772" cy="172" rx="104" ry="33" fill="#fff4ea" opacity="0.85"/><ellipse cx="701" cy="184" rx="74" ry="24" fill="#fff4ea" opacity="0.85"/><ellipse cx="846" cy="187" rx="83" ry="25" fill="#fff4ea" opacity="0.85"/><ellipse cx="784" cy="154" rx="59" ry="27" fill="#fff4ea" opacity="0.85"/>
<ellipse cx="935" cy="148" rx="90" ry="28" fill="#fff4ea" opacity="0.85"/><ellipse cx="873" cy="158" rx="64" ry="21" fill="#fff4ea" opacity="0.85"/><ellipse cx="999" cy="161" rx="72" ry="22" fill="#fff4ea" opacity="0.85"/><ellipse cx="945" cy="133" rx="51" ry="23" fill="#fff4ea" opacity="0.85"/>
<ellipse cx="660" cy="164" rx="101" ry="32" fill="#fff4ea" opacity="0.85"/><ellipse cx="590" cy="176" rx="72" ry="23" fill="#fff4ea" opacity="0.85"/><ellipse cx="732" cy="178" rx="81" ry="25" fill="#fff4ea" opacity="0.85"/><ellipse cx="672" cy="147" rx="58" ry="26" fill="#fff4ea" opacity="0.85"/>
<ellipse cx="1351" cy="130" rx="93" ry="29" fill="#fff4ea" opacity="0.85"/><ellipse cx="1287" cy="141" rx="67" ry="21" fill="#fff4ea" opacity="0.85"/><ellipse cx="1418" cy="143" rx="75" ry="23" fill="#fff4ea" opacity="0.85"/><ellipse cx="1362" cy="114" rx="53" ry="24" fill="#fff4ea" opacity="0.85"/>
<path d="M0 520 C220 440 420 500 640 470 S1060 430 1300 480 S1520 470 1600 490 V650 H0Z" fill="#b7c1b4"/>
<path d="M0 575 C260 525 520 585 780 550 S1250 525 1600 570 V650 H0Z" fill="#9aaa98"/>
<circle cx="-20" cy="622" r="28" fill="#4e9a4a" opacity="0.9"/>
<circle cx="18" cy="627" r="40" fill="#437f3f" opacity="0.9"/>
<circle cx="56" cy="621" r="31" fill="#437f3f" opacity="0.9"/>
<circle cx="94" cy="623" r="28" fill="#4e9a4a" opacity="0.9"/>
<circle cx="132" cy="633" r="38" fill="#6bb85c" opacity="0.9"/>
<circle cx="170" cy="621" r="38" fill="#5fae55" opacity="0.9"/>
<circle cx="208" cy="626" r="40" fill="#6bb85c" opacity="0.9"/>
<circle cx="246" cy="624" r="32" fill="#5fae55" opacity="0.9"/>
<circle cx="284" cy="629" r="35" fill="#4e9a4a" opacity="0.9"/>
<circle cx="322" cy="627" r="35" fill="#5fae55" opacity="0.9"/>
<circle cx="360" cy="631" r="30" fill="#437f3f" opacity="0.9"/>
<circle cx="398" cy="632" r="34" fill="#5fae55" opacity="0.9"/>
<circle cx="436" cy="622" r="39" fill="#6bb85c" opacity="0.9"/>
<circle cx="474" cy="625" r="36" fill="#437f3f" opacity="0.9"/>
<circle cx="512" cy="638" r="30" fill="#6bb85c" opacity="0.9"/>
<circle cx="550" cy="632" r="28" fill="#4e9a4a" opacity="0.9"/>
<circle cx="588" cy="625" r="26" fill="#5fae55" opacity="0.9"/>
<circle cx="626" cy="623" r="40" fill="#5fae55" opacity="0.9"/>
<circle cx="664" cy="624" r="30" fill="#5fae55" opacity="0.9"/>
<circle cx="702" cy="629" r="34" fill="#4e9a4a" opacity="0.9"/>
<circle cx="740" cy="638" r="27" fill="#6bb85c" opacity="0.9"/>
<circle cx="778" cy="631" r="38" fill="#437f3f" opacity="0.9"/>
<circle cx="816" cy="634" r="29" fill="#437f3f" opacity="0.9"/>
<circle cx="854" cy="623" r="34" fill="#4e9a4a" opacity="0.9"/>
<circle cx="892" cy="627" r="27" fill="#4e9a4a" opacity="0.9"/>
<circle cx="930" cy="630" r="39" fill="#4e9a4a" opacity="0.9"/>
<circle cx="968" cy="623" r="40" fill="#4e9a4a" opacity="0.9"/>
<circle cx="1006" cy="622" r="28" fill="#5fae55" opacity="0.9"/>
<circle cx="1044" cy="622" r="37" fill="#5fae55" opacity="0.9"/>
<circle cx="1082" cy="624" r="35" fill="#437f3f" opacity="0.9"/>
<circle cx="1120" cy="633" r="35" fill="#6bb85c" opacity="0.9"/>
<circle cx="1158" cy="625" r="39" fill="#4e9a4a" opacity="0.9"/>
<circle cx="1196" cy="634" r="36" fill="#6bb85c" opacity="0.9"/>
<circle cx="1234" cy="626" r="26" fill="#437f3f" opacity="0.9"/>
<circle cx="1272" cy="630" r="34" fill="#437f3f" opacity="0.9"/>
<circle cx="1310" cy="620" r="34" fill="#5fae55" opacity="0.9"/>
<circle cx="1348" cy="629" r="30" fill="#5fae55" opacity="0.9"/>
<circle cx="1386" cy="624" r="37" fill="#5fae55" opacity="0.9"/>
<circle cx="1424" cy="630" r="28" fill="#437f3f" opacity="0.9"/>
<circle cx="1462" cy="631" r="32" fill="#437f3f" opacity="0.9"/>
<circle cx="1500" cy="622" r="39" fill="#437f3f" opacity="0.9"/>
<circle cx="1538" cy="629" r="32" fill="#6bb85c" opacity="0.9"/>
<circle cx="1576" cy="626" r="28" fill="#5fae55" opacity="0.9"/>
<circle cx="1614" cy="624" r="37" fill="#437f3f" opacity="0.9"/>
<rect x="0.0" y="650.0" width="1600.0" height="150.0" fill="url(#lawn)" />
<rect x="0.0" y="650.0" width="1600.0" height="26.0" fill="#cfd3d6" />
<rect x="0.0" y="676.0" width="1600.0" height="4.0" fill="#b4babe" />
<polygon points="740.0,680 860.0,680 990.0,800 610.0,800" fill="#d9dcdd"/>
<rect x="308.0" y="650.0" width="120.0" height="12.0" fill="#000000" opacity="0.12"/>
<rect x="300.0" y="570.0" width="120.0" height="80.0" fill="#8aa2b4" />
<rect x="405.6" y="570.0" width="14.4" height="80.0" fill="#000000" opacity="0.08"/>
<rect x="332.0" y="531.0" width="71.0" height="35.0" fill="#9aa6b2" stroke="#6f7b87" stroke-width="2"/>
<path d="M340.0 535v27M352.0 535v27M364.0 535v27M376.0 535v27M388.0 535v27" stroke="#6f7b87" stroke-width="2"/>
<rect x="353.3" y="523.0" width="28.4" height="8.0" fill="#7d8791" />
<rect x="296.0" y="560.0" width="128.0" height="10.0" fill="#5f7384" />
<rect x="428.0" y="650.0" width="760.0" height="12.0" fill="#000000" opacity="0.12"/>
<rect x="420.0" y="460.0" width="760.0" height="190.0" fill="#cfd6dc" />
<rect x="1088.8" y="460.0" width="91.2" height="190.0" fill="#000000" opacity="0.08"/>
<rect x="436.0" y="486.0" width="728.0" height="38.0" fill="url(#glass)" />
<path d="M484.5 486v38M533.1 486v38M581.6 486v38M630.1 486v38M678.7 486v38M727.2 486v38M775.7 486v38M824.3 486v38M872.8 486v38M921.3 486v38M969.9 486v38M1018.4 486v38M1066.9 486v38M1115.5 486v38" stroke="#8795a3" stroke-width="2" opacity="0.7"/>
<path d="M412 460 Q800.0 320 1188 460 Z" fill="#7d8d9c"/>
<path d="M515.0 458V430M610.0 458V430M705.0 458V430M800.0 458V430M895.0 458V430M990.0 458V430M1085.0 458V430" stroke="#ffffff" stroke-width="2" opacity="0.18"/>
<rect x="412.0" y="456.0" width="776.0" height="6.0" fill="#8795a3" />
<rect x="738.0" y="516.0" width="124.0" height="8.0" fill="#8795a3" />
<rect x="766.0" y="530.0" width="68.0" height="120.0" fill="#27384a" />
<rect x="799.0" y="530.0" width="2.0" height="120.0" fill="#8795a3" />
<rect x="754.0" y="644.0" width="92.0" height="6.0" fill="#c3c8cc" />
<rect x="204.8" y="653.0" width="10.5" height="63.0" fill="#6b4a2f" />
<circle cx="210" cy="608" r="50" fill="#4e9a4a"/>
<circle cx="176" cy="640" r="39" fill="#437f3f"/>
<circle cx="244" cy="640" r="39" fill="#4e9a4a"/>
<circle cx="210" cy="650" r="45" fill="#5fae55"/>
<rect x="94.2" y="669.1" width="11.7" height="69.9" fill="#6b4a2f" />
<circle cx="100" cy="620" r="55" fill="#6bb85c"/>
<circle cx="62" cy="655" r="44" fill="#5fae55"/>
<circle cx="138" cy="655" r="44" fill="#437f3f"/>
<circle cx="100" cy="666" r="50" fill="#4e9a4a"/>
<rect x="1265.4" y="635.5" width="9.2" height="55.5" fill="#6b4a2f" />
<circle cx="1270" cy="596" r="44" fill="#437f3f"/>
<circle cx="1240" cy="624" r="35" fill="#6bb85c"/>
<circle cx="1300" cy="624" r="35" fill="#5fae55"/>
<circle cx="1270" cy="633" r="39" fill="#6bb85c"/>
<rect x="1374.0" y="672.6" width="11.9" height="71.4" fill="#6b4a2f" />
<circle cx="1380" cy="622" r="57" fill="#437f3f"/>
<circle cx="1341" cy="658" r="45" fill="#4e9a4a"/>
<circle cx="1419" cy="658" r="45" fill="#4e9a4a"/>
<circle cx="1380" cy="670" r="51" fill="#437f3f"/>
<ellipse cx="43" cy="702" rx="28" ry="17" fill="#4e9a4a"/>
<ellipse cx="138" cy="702" rx="30" ry="13" fill="#6bb85c"/>
<ellipse cx="228" cy="702" rx="37" ry="18" fill="#4e9a4a"/>
<ellipse cx="339" cy="702" rx="35" ry="16" fill="#4e9a4a"/>
<ellipse cx="424" cy="702" rx="29" ry="15" fill="#6bb85c"/>
<ellipse cx="510" cy="702" rx="39" ry="18" fill="#437f3f"/>
<ellipse cx="1109" cy="702" rx="34" ry="16" fill="#5fae55"/>
<ellipse cx="1193" cy="702" rx="35" ry="18" fill="#6bb85c"/>
<ellipse cx="1290" cy="702" rx="33" ry="18" fill="#4e9a4a"/>
<ellipse cx="1384" cy="702" rx="39" ry="17" fill="#4e9a4a"/>
<ellipse cx="1477" cy="702" rx="36" ry="17" fill="#6bb85c"/>
<ellipse cx="1573" cy="702" rx="37" ry="16" fill="#5fae55"/>
</svg>
