<svg xmlns="http://www.w3.org/2000/svg" viewBox="0 0 1600 800" width="1600" height="800" role="img" aria-label="가상 건물 전경 일러스트">
<!-- 가상의 건물 일러스트. scripts/generate_building_images.py 로 생성 -->
<defs><linearGradient id="sky" x1="0" y1="0" x2="0" y2="1"><stop offset="0" stop-color="#34436e"/><stop offset="0.8" stop-color="#f3a77a"/></linearGradient><linearGradient id="glass" x1="0" y1="0" x2="0" y2="1"><stop offset="0" stop-color="#506f8e"/><stop offset="1" stop-color="#243649"/></linearGradient><linearGradient id="lawn" x1="0" y1="0" x2="0" y2="1"><stop offset="0" stop-color="#55825a"/><stop offset="1" stop-color="#3d6244"/></linearGradient></defs>
<rect x="0.0" y="0.0" width="1600.0" height="800.0" fill="url(#sky)" />
<circle cx="1180" cy="520" r="115" fill="#ffcf8a" opacity="0.28"/>
<circle cx="1180" cy="520" r="52" fill="#ffcf8a"/>
<ellipse cx="1362" cy="78" rx="92" ry="29" fill="#e9a89a" opacity="0.85"/><ellipse cx="1299" cy="89" rx="66" ry="21" fill="#e9a89a" opacity="0.85"/><ellipse cx="1428" cy="91" rx="74" ry="22" fill="#e9a89a" opacity="0.85"/><ellipse cx="1373" cy="62" rx="53" ry="24" fill="#e9a89a" opacity="0.85"/>
<ellipse cx="781" cy="209" rx="90" ry="28" fill="#e9a89a" opacity="0.85"/><ellipse cx="719" cy="219" rx="64" ry="21" fill="#e9a89a" opacity="0.85"/><ellipse cx="845" cy="222" rx="72" ry="22" fill="#e9a89a" opacity="0.85"/><ellipse cx="791" cy="194" rx="51" ry="23" fill="#e9a89a" opacity="0.85"/>
<ellipse cx="931" cy="88" rx="102" ry="32" fill="#e9a89a" opacity="0.85"/><ellipse cx="861" cy="100" rx="73" ry="23" fill="#e9a89a" opacity="0.85"/><ellipse cx="1004" cy="103" rx="82" ry="25" fill="#e9a89a" opacity="0.85"/><ellipse cx="943" cy="70" rx="58" ry="26" fill="#e9a89a" opacity="0.85"/>
<ellipse cx="249" cy="143" rx="90" ry="28" fill="#e9a89a" opacity="0.85"/><ellipse cx="187" cy="153" rx="64" ry="21" fill="#e9a89a" opacity="0.85"/><ellipse cx="313" cy="156" rx="72" ry="22" fill="#e9a89a" opacity="0.85"/><ellipse cx="259" cy="128" rx="52" ry="23" fill="#e9a89a" opacity="0.85"/>
<ellipse cx="1013" cy="65" rx="69" ry="22" fill="#e9a89a" opacity="0.85"/><ellipse cx="966" cy="73" rx="49" ry="16" fill="#e9a89a" opacity="0.85"/><ellipse cx="1062" cy="75" rx="55" ry="17" fill="#e9a89a" opacity="0.85"/><ellipse cx="1021" cy="53" rx="39" ry="18" fill="#e9a89a" opacity="0.85"/>
<path d="M0 520 C220 440 420 500 640 470 S1060 430 1300 480 S1520 470 1600 490 V650 H0Z" fill="#6a6a86"/>
<path d="M0 575 C260 525 520 585 780 550 S1250 525 1600 570 V650 H0Z" fill="#4f5a6e"/>
<circle cx="-20" cy="636" r="33" fill="#5fae55" opacity="0.9"/>
<circle cx="18" cy="636" r="30" fill="#6bb85c" opacity="0.9"/>
<circle cx="56" cy="632" r="30" fill="#5fae55" opacity="0.9"/>
<circle cx="94" cy="638" r="35" fill="#437f3f" opacity="0.9"/>
<circle cx="132" cy="622" r="34" fill="#5fae55" opacity="0.9"/>
<circle cx="170" cy="622" r="38" fill="#6bb85c" opacity="0.9"/>
<circle cx="208" cy="635" r="30" fill="#5fae55" opacity="0.9"/>
<circle cx="246" cy="622" r="30" fill="#5fae55" opacity="0.9"/>
<circle cx="284" cy="638" r="34" fill="#5fae55" opacity="0.9"/>
<circle cx="322" cy="633" r="28" fill="#6bb85c" opacity="0.9"/>
<circle cx="360" cy="620" r="30" fill="#4e9a4a" opacity="0.9"/>
<circle cx="398" cy="623" r="28" fill="#5fae55" opacity="0.9"/>
<circle cx="436" cy="636" r="36" fill="#6bb85c" opacity="0.9"/>
<circle cx="474" cy="624" r="36" fill="#6bb85c" opacity="0.9"/>
<circle cx="512" cy="620" r="31" fill="#5fae55" opacity="0.9"/>
<circle cx="550" cy="623" r="38" fill="#5fae55" opacity="0.9"/>
<circle cx="588" cy="634" r="26" fill="#4e9a4a" opacity="0.9"/>
<circle cx="626" cy="620" r="30" fill="#6bb85c" opacity="0.9"/>
<circle cx="664" cy="636" r="30" fill="#437f3f" opacity="0.9"/>
<circle cx="702" cy="629" r="26" fill="#6bb85c" opacity="0.9"/>
<circle cx="740" cy="635" r="29" fill="#437f3f" opacity="0.9"/>
<circle cx="778" cy="623" r="36" fill="#437f3f" opacity="0.9"/>
<circle cx="816" cy="623" r="35" fill="#5fae55" opacity="0.9"/>
<circle cx="854" cy="633" r="29" fill="#437f3f" opacity="0.9"/>
<circle cx="892" cy="627" r="32" fill="#437f3f" opacity="0.9"/>
<circle cx="930" cy="632" r="30" fill="#4e9a4a" opacity="0.9"/>
<circle cx="968" cy="623" r="37" fill="#437f3f" opacity="0.9"/>
<circle cx="1006" cy="628" r="31" fill="#5fae55" opacity="0.9"/>
<circle cx="1044" cy="625" r="27" fill="#4e9a4a" opacity="0.9"/>
<circle cx="1082" cy="635" r="34" fill="#437f3f" opacity="0.9"/>
<circle cx="1120" cy="633" r="27" fill="#4e9a4a" opacity="0.9"/>
<circle cx="1158" cy="638" r="39" fill="#437f3f" opacity="0.9"/>
<circle cx="1196" cy="628" r="28" fill="#437f3f" opacity="0.9"/>
<circle cx="1234" cy="636" r="30" fill="#6bb85c" opacity="0.9"/>
<circle cx="1272" cy="632" r="26" fill="#6bb85c" opacity="0.9"/>
<circle cx="1310" cy="620" r="36" fill="#6bb85c" opacity="0.9"/>
<circle cx="1348" cy="625" r="29" fill="#6bb85c" opacity="0.9"/>
<circle cx="1386" cy="628" r="28" fill="#6bb85c" opacity="0.9"/>
<circle cx="1424" cy="630" r="31" fill="#5fae55" opacity="0.9"/>
<circle cx="1462" cy="624" r="36" fill="#437f3f" opacity="0.9"/>
<circle cx="1500" cy="633" r="35" fill="#5fae55" opacity="0.9"/>
<circle cx="1538" cy="627" r="30" fill="#4e9a4a" opacity="0.9"/>
<circle cx="1576" cy="625" r="33" fill="#437f3f" opacity="0.9"/>
<circle cx="1614" cy="620" r="35" fill="#6bb85c" opacity="0.9"/>
<rect x="0.0" y="650.0" width="1600.0" height="150.0" fill="url(#lawn)" />
<rect x="0.0" y="650.0" width="1600.0" height="26.0" fill="#cfd3d6" />
<rect x="0.0" y="676.0" width="1600.0" height="4.0" fill="#b4babe" />
<polygon points="740.0,680 860.0,680 990.0,800 610.0,800" fill="#d9dcdd"/>
<rect x="468.0" y="650.0" width="680.0" height="12.0" fill="#000000" opacity="0.12"/>
<rect x="460.0" y="434.0" width="680.0" height="216.0" fill="#e9edf0" />
<rect x="1058.4" y="434.0" width="81.6" height="216.0" fill="#000000" opacity="0.08"/>
<rect x="460.0" y="486.5" width="680.0" height="3.0" fill="#8795a3" opacity="0.5"/>
<rect x="460.0" y="540.5" width="680.0" height="3.0" fill="#8795a3" opacity="0.5"/>
<rect x="460.0" y="594.5" width="680.0" height="3.0" fill="#8795a3" opacity="0.5"/>
<rect x="470.0" y="442.6" width="660.0" height="33.5" fill="url(#glass)" />
<rect x="504.7" y="442.6" width="34.7" height="33.5" fill="#ffe08a" opacity="0.85"/>
<rect x="574.2" y="442.6" width="34.7" height="33.5" fill="#ffe08a" opacity="0.85"/>
<rect x="643.7" y="442.6" width="34.7" height="33.5" fill="#ffe08a" opacity="0.85"/>
<rect x="678.4" y="442.6" width="34.7" height="33.5" fill="#ffe08a" opacity="0.85"/>
<rect x="782.6" y="442.6" width="34.7" height="33.5" fill="#ffe08a" opacity="0.85"/>
<rect x="852.1" y="442.6" width="34.7" height="33.5" fill="#ffe08a" opacity="0.85"/>
<rect x="886.8" y="442.6" width="34.7" height="33.5" fill="#ffe08a" opacity="0.85"/>
<rect x="921.6" y="442.6" width="34.7" height="33.5" fill="#ffe08a" opacity="0.85"/>
<rect x="1025.8" y="442.6" width="34.7" height="33.5" fill="#ffe08a" opacity="0.85"/>
<path d="M504.7 442.6v33.5M539.5 442.6v33.5M574.2 442.6v33.5M608.9 442.6v33.5M643.7 442.6v33.5M678.4 442.6v33.5M713.2 442.6v33.5M747.9 442.6v33.5M782.6 442.6v33.5M817.4 442.6v33.5M852.1 442.6v33.5M886.8 442.6v33.5M921.6 442.6v33.5M956.3 442.6v33.5M991.1 442.6v33.5M1025.8 442.6v33.5M1060.5 442.6v33.5M1095.3 442.6v33.5" stroke="#8795a3" stroke-width="1.5" opacity="0.6"/>
<rect x="470.0" y="496.6" width="660.0" height="33.5" fill="url(#glass)" />
<rect x="504.7" y="496.6" width="34.7" height="33.5" fill="#ffe08a" opacity="0.85"/>
<rect x="713.2" y="496.6" width="34.7" height="33.5" fill="#ffe08a" opacity="0.85"/>
<rect x="817.4" y="496.6" width="34.7" height="33.5" fill="#ffe08a" opacity="0.85"/>
<rect x="956.3" y="496.6" width="34.7" height="33.5" fill="#ffe08a" opacity="0.85"/>
<rect x="991.1" y="496.6" width="34.7" height="33.5" fill="#ffe08a" opacity="0.85"/>
<rect x="1060.5" y="496.6" width="34.7" height="33.5" fill="#ffe08a" opacity="0.85"/>
<rect x="1095.3" y="496.6" width="34.7" height="33.5" fill="#ffe08a" opacity="0.85"/>
<path d="M504.7 496.6v33.5M539.5 496.6v33.5M574.2 496.6v33.5M608.9 496.6v33.5M643.7 496.6v33.5M678.4 496.6v33.5M713.2 496.6v33.5M747.9 496.6v33.5M782.6 496.6v33.5M817.4 496.6v33.5M852.1 496.6v33.5M886.8 496.6v33.5M921.6 496.6v33.5M956.3 496.6v33.5M991.1 496.6v33.5M1025.8 496.6v33.5M1060.5 496.6v33.5M1095.3 496.6v33.5" stroke="#8795a3" stroke-width="1.5" opacity="0.6"/>
<rect x="470.0" y="550.6" width="660.0" height="33.5" fill="url(#glass)" />
<rect x="539.5" y="550.6" width="34.7" height="33.5" fill="#ffe08a" opacity="0.85"/>
<rect x="608.9" y="550.6" width="34.7" height="33.5" fill="#ffe08a" opacity="0.85"/>
<rect x="643.7" y="550.6" width="34.7" height="33.5" fill="#ffe08a" opacity="0.85"/>
<rect x="678.4" y="550.6" width="34.7" height="33.5" fill="#ffe08a" opacity="0.85"/>
<rect x="713.2" y="550.6" width="34.7" height="33.5" fill="#ffe08a" opacity="0.85"/>
<rect x="782.6" y="550.6" width="34.7" height="33.5" fill="#ffe08a" opacity="0.85"/>
<rect x="886.8" y="550.6" width="34.7" height="33.5" fill="#ffe08a" opacity="0.85"/>
<path d="M504.7 550.6v33.5M539.5 550.6v33.5M574.2 550.6v33.5M608.9 550.6v33.5M643.7 550.6v33.5M678.4 550.6v33.5M713.2 550.6v33.5M747.9 550.6v33.5M782.6 550.6v33.5M817.4 550.6v33.5M852.1 550.6v33.5M886.8 550.6v33.5M921.6 550.6v33.5M956.3 550.6v33.5M991.1 550.6v33.5M1025.8 550.6v33.5M1060.5 550.6v33.5M1095.3 550.6v33.5" stroke="#8795a3" stroke-width="1.5" opacity="0.6"/>
<rect x="470.0" y="604.6" width="660.0" height="33.5" fill="url(#glass)" />
<rect x="470.0" y="604.6" width="34.7" height="33.5" fill="#ffe08a" opacity="0.85"/>
<rect x="539.5" y="604.6" width="34.7" height="33.5" fill="#ffe08a" opacity="0.85"/>
<rect x="608.9" y="604.6" width="34.7" height="33.5" fill="#ffe08a" opacity="0.85"/>
<rect x="643.7" y="604.6" width="34.7" height="33.5" fill="#ffe08a" opacity="0.85"/>
<rect x="713.2" y="604.6" width="34.7" height="33.5" fill="#ffe08a" opacity="0.85"/>
<rect x="782.6" y="604.6" width="34.7" height="33.5" fill="#ffe08a" opacity="0.85"/>
<rect x="852.1" y="604.6" width="34.7" height="33.5" fill="#ffe08a" opacity="0.85"/>
<rect x="956.3" y="604.6" width="34.7" height="33.5" fill="#ffe08a" opacity="0.85"/>
<rect x="1095.3" y="604.6" width="34.7" height="33.5" fill="#ffe08a" opacity="0.85"/>
<path d="M504.7 604.6v33.5M539.5 604.6v33.5M574.2 604.6v33.5M608.9 604.6v33.5M643.7 604.6v33.5M678.4 604.6v33.5M713.2 604.6v33.5M747.9 604.6v33.5M782.6 604.6v33.5M817.4 604.6v33.5M852.1 604.6v33.5M886.8 604.6v33.5M921.6 604.6v33.5M956.3 604.6v33.5M991.1 604.6v33.5M1025.8 604.6v33.5M1060.5 604.6v33.5M1095.3 604.6v33.5" stroke="#8795a3" stroke-width="1.5" opacity="0.6"/>
<rect x="492.0" y="399.0" width="73.0" height="31.0" fill="#9aa6b2" stroke="#6f7b87" stroke-width="2"/>
<path d="M500.0 403v23M512.0 403v23M524.0 403v23M536.0 403v23M548.0 403v23" stroke="#6f7b87" stroke-width="2"/>
<rect x="513.9" y="391.0" width="29.2" height="8.0" fill="#7d8791" />
<rect x="702.0" y="402.0" width="73.0" height="28.0" fill="#9aa6b2" stroke="#6f7b87" stroke-width="2"/>
<path d="M710.0 406v20M722.0 406v20M734.0 406v20M746.0 406v20M758.0 406v20" stroke="#6f7b87" stroke-width="2"/>
<rect x="723.9" y="394.0" width="29.2" height="8.0" fill="#7d8791" />
<rect x="910.0" y="398.0" width="68.0" height="32.0" fill="#9aa6b2" stroke="#6f7b87" stroke-width="2"/>
<path d="M918.0 402v24M930.0 402v24M942.0 402v24M954.0 402v24M966.0 402v24" stroke="#6f7b87" stroke-width="2"/>
<rect x="930.4" y="390.0" width="27.2" height="8.0" fill="#7d8791" />
<rect x="1100.0" y="371.0" width="9.0" height="63.0" fill="#aeb6bd" />
<rect x="1097.0" y="366.0" width="15.0" height="5.0" fill="#8c959d" />
<rect x="1066.0" y="381.0" width="9.0" height="53.0" fill="#aeb6bd" />
<rect x="1063.0" y="376.0" width="15.0" height="5.0" fill="#8c959d" />
<rect x="1032.0" y="386.0" width="9.0" height="48.0" fill="#aeb6bd" />
<rect x="1029.0" y="381.0" width="15.0" height="5.0" fill="#8c959d" />
<rect x="456.0" y="424.0" width="688.0" height="10.0" fill="#8795a3" />
<rect x="690.0" y="569.0" width="220.0" height="81.0" fill="url(#glass)" stroke="#8795a3" stroke-width="3"/>
<path d="M734.0 569.0v81.0M778.0 569.0v81.0M822.0 569.0v81.0M866.0 569.0v81.0" stroke="#8795a3" stroke-width="2"/>
<rect x="776.0" y="605.5" width="48.0" height="44.6" fill="#27384a" opacity="0.55"/>
<rect x="668.0" y="559.0" width="264.0" height="10.0" fill="#8795a3" />
<rect x="1148.0" y="650.0" width="160.0" height="12.0" fill="#000000" opacity="0.12"/>
<rect x="1140.0" y="542.0" width="160.0" height="108.0" fill="#6c7a89" />
<rect x="1280.8" y="542.0" width="19.2" height="108.0" fill="#000000" opacity="0.08"/>
<rect x="1140.0" y="594.5" width="160.0" height="3.0" fill="#4f5b67" opacity="0.5"/>
<rect x="1260.0" y="497.0" width="9.0" height="45.0" fill="#aeb6bd" />
<rect x="1257.0" y="492.0" width="15.0" height="5.0" fill="#8c959d" />
<rect x="1136.0" y="532.0" width="168.0" height="10.0" fill="#4f5b67" />
<rect x="365.0" y="645.3" width="9.9" height="59.7" fill="#6b4a2f" />
<circle cx="370" cy="603" r="47" fill="#437f3f"/>
<circle cx="338" cy="633" r="37" fill="#437f3f"/>
<circle cx="402" cy="633" r="37" fill="#437f3f"/>
<circle cx="370" cy="643" r="42" fill="#4e9a4a"/>
<rect x="254.5" y="660.7" width="11.1" height="66.3" fill="#6b4a2f" />
<circle cx="260" cy="614" r="52" fill="#5fae55"/>
<circle cx="224" cy="647" r="41" fill="#4e9a4a"/>
<circle cx="296" cy="647" r="41" fill="#4e9a4a"/>
<circle cx="260" cy="658" r="47" fill="#437f3f"/>
<rect x="1385.0" y="646.7" width="10.1" height="60.3" fill="#6b4a2f" />
<circle cx="1390" cy="604" r="48" fill="#437f3f"/>
<circle cx="1357" cy="634" r="38" fill="#4e9a4a"/>
<circle cx="1423" cy="634" r="38" fill="#4e9a4a"/>
<circle cx="1390" cy="644" r="43" fill="#4e9a4a"/>
<rect x="1494.7" y="655.8" width="10.7" height="64.2" fill="#6b4a2f" />
<circle cx="1500" cy="610" r="51" fill="#4e9a4a"/>
<circle cx="1465" cy="642" r="40" fill="#5fae55"/>
<circle cx="1535" cy="642" r="40" fill="#5fae55"/>
<circle cx="1500" cy="653" r="45" fill="#5fae55"/>
<ellipse cx="38" cy="702" rx="31" ry="14" fill="#437f3f"/>
<ellipse cx="149" cy="702" rx="39" ry="18" fill="#4e9a4a"/>
<ellipse cx="235" cy="702" rx="29" ry="17" fill="#4e9a4a"/>
<ellipse cx="335" cy="702" rx="35" ry="16" fill="#4e9a4a"/>
<ellipse cx="434" cy="702" rx="40" ry="18" fill="#437f3f"/>
<ellipse cx="511" cy="702" rx="32" ry="17" fill="#437f3f"/>
<ellipse cx="1093" cy="702" rx="28" ry="17" fill="#437f3f"/>
<ellipse cx="1188" cy="702" rx="34" ry="13" fill="#5fae55"/>
<ellipse cx="1288" cy="702" rx="35" ry="13" fill="#5fae55"/>
<ellipse cx="1393" cy="702" rx="40" ry="14" fill="#5fae55"/>
<ellipse cx="1472" cy="702" rx="29" ry="17" fill="#437f3f"/>
<ellipse cx="1567" cy="702" rx="30" ry="14" fill="#6bb85c"/>
</svg>
